<svg class="rich-terminal" viewBox="0 0 1482 928.4" xmlns="http://www.w3.org/2000/svg">
    <!-- Generated with Rich https://www.textualize.io -->
    <style>

    @font-face {
        font-family: "Fira Code";
        src: local("FiraCode-Regular"),
                url("https://cdnjs.cloudflare.com/ajax/libs/firacode/6.2.0/woff2/FiraCode-Regular.woff2") format("woff2"),
                url("https://cdnjs.cloudflare.com/ajax/libs/firacode/6.2.0/woff/FiraCode-Regular.woff") format("woff");
        font-style: normal;
        font-weight: 400;
    }
    @font-face {
        font-family: "Fira Code";
        src: local("FiraCode-Bold"),
                url("https://cdnjs.cloudflare.com/ajax/libs/firacode/6.2.0/woff2/FiraCode-Bold.woff2") format("woff2"),
                url("https://cdnjs.cloudflare.com/ajax/libs/firacode/6.2.0/woff/FiraCode-Bold.woff") format("woff");
        font-style: bold;
        font-weight: 700;
    }

    .terminal-1031370311-matrix {
        font-family: Fira Code, monospace;
        font-size: 20px;
        line-height: 24.4px;
        font-variant-east-asian: full-width;
    }

    .terminal-1031370311-title {
        font-size: 18px;
        font-weight: bold;
        font-family: arial;
    }

    .terminal-1031370311-r1 { fill: #c5c8c6 }
.terminal-1031370311-r2 { fill: #e2e3e5;font-weight: bold }
.terminal-1031370311-r3 { fill: #e2e3e5 }
.terminal-1031370311-r4 { fill: #f4005f;font-weight: bold }
.terminal-1031370311-r5 { fill: #98e024;font-weight: bold }
.terminal-1031370311-r6 { fill: #a1a5aa }
.terminal-1031370311-r7 { fill: #0178d4 }
.terminal-1031370311-r8 { fill: #e0e0e0 }
.terminal-1031370311-r9 { fill: #fea62b }
.terminal-1031370311-r10 { fill: #a7abaf }
    </style>

    <defs>
    <clipPath id="terminal-1031370311-clip-terminal">
      <rect x="0" y="0" width="1463.0" height="877.4" />
    </clipPath>
    <clipPath id="terminal-1031370311-line-0">
    <rect x="0" y="1.5" width="1464" height="24.65"/>
            </clipPath>
<clipPath id="terminal-1031370311-line-1">
    <rect x="0" y="25.9" width="1464" height="24.65"/>
            </clipPath>
<clipPath id="terminal-1031370311-line-2">
    <rect x="0" y="50.3" width="1464" height="24.65"/>
            </clipPath>
<clipPath id="terminal-1031370311-line-3">
    <rect x="0" y="74.7" width="1464" height="24.65"/>
            </clipPath>
<clipPath id="terminal-1031370311-line-4">
    <rect x="0" y="99.1" width="1464" height="24.65"/>
            </clipPath>
<clipPath id="terminal-1031370311-line-5">
    <rect x="0" y="123.5" width="1464" height="24.65"/>
            </clipPath>
<clipPath id="terminal-1031370311-line-6">
    <rect x="0" y="147.9" width="1464" height="24.65"/>
            </clipPath>
<clipPath id="terminal-1031370311-line-7">
    <rect x="0" y="172.3" width="1464" height="24.65"/>
            </clipPath>
<clipPath id="terminal-1031370311-line-8">
    <rect x="0" y="196.7" width="1464" height="24.65"/>
            </clipPath>
<clipPath id="terminal-1031370311-line-9">
    <rect x="0" y="221.1" width="1464" height="24.65"/>
            </clipPath>
<clipPath id="terminal-1031370311-line-10">
    <rect x="0" y="245.5" width="1464" height="24.65"/>
            </clipPath>
<clipPath id="terminal-1031370311-line-11">
    <rect x="0" y="269.9" width="1464" height="24.65"/>
            </clipPath>
<clipPath id="terminal-1031370311-line-12">
    <rect x="0" y="294.3" width="1464" height="24.65"/>
            </clipPath>
<clipPath id="terminal-1031370311-line-13">
    <rect x="0" y="318.7" width="1464" height="24.65"/>
            </clipPath>
<clipPath id="terminal-1031370311-line-14">
    <rect x="0" y="343.1" width="1464" height="24.65"/>
            </clipPath>
<clipPath id="terminal-1031370311-line-15">
    <rect x="0" y="367.5" width="1464" height="24.65"/>
            </clipPath>
<clipPath id="terminal-1031370311-line-16">
    <rect x="0" y="391.9" width="1464" height="24.65"/>
            </clipPath>
<clipPath id="terminal-1031370311-line-17">
    <rect x="0" y="416.3" width="1464" height="24.65"/>
            </clipPath>
<clipPath id="terminal-1031370311-line-18">
    <rect x="0" y="440.7" width="1464" height="24.65"/>
            </clipPath>
<clipPath id="terminal-1031370311-line-19">
    <rect x="0" y="465.1" width="1464" height="24.65"/>
            </clipPath>
<clipPath id="terminal-1031370311-line-20">
    <rect x="0" y="489.5" width="1464" height="24.65"/>
            </clipPath>
<clipPath id="terminal-1031370311-line-21">
    <rect x="0" y="513.9" width="1464" height="24.65"/>
            </clipPath>
<clipPath id="terminal-1031370311-line-22">
    <rect x="0" y="538.3" width="1464" height="24.65"/>
            </clipPath>
<clipPath id="terminal-1031370311-line-23">
    <rect x="0" y="562.7" width="1464" height="24.65"/>
            </clipPath>
<clipPath id="terminal-1031370311-line-24">
    <rect x="0" y="587.1" width="1464" height="24.65"/>
            </clipPath>
<clipPath id="terminal-1031370311-line-25">
    <rect x="0" y="611.5" width="1464" height="24.65"/>
            </clipPath>
<clipPath id="terminal-1031370311-line-26">
    <rect x="0" y="635.9" width="1464" height="24.65"/>
            </clipPath>
<clipPath id="terminal-1031370311-line-27">
    <rect x="0" y="660.3" width="1464" height="24.65"/>
            </clipPath>
<clipPath id="terminal-1031370311-line-28">
    <rect x="0" y="684.7" width="1464" height="24.65"/>
            </clipPath>
<clipPath id="terminal-1031370311-line-29">
    <rect x="0" y="709.1" width="1464" height="24.65"/>
            </clipPath>
<clipPath id="terminal-1031370311-line-30">
    <rect x="0" y="733.5" width="1464" height="24.65"/>
            </clipPath>
<clipPath id="terminal-1031370311-line-31">
    <rect x="0" y="757.9" width="1464" height="24.65"/>
            </clipPath>
<clipPath id="terminal-1031370311-line-32">
    <rect x="0" y="782.3" width="1464" height="24.65"/>
            </clipPath>
<clipPath id="terminal-1031370311-line-33">
    <rect x="0" y="806.7" width="1464" height="24.65"/>
            </clipPath>
<clipPath id="terminal-1031370311-line-34">
    <rect x="0" y="831.1" width="1464" height="24.65"/>
            </clipPath>
    </defs>

    <rect fill="#292929" stroke="rgba(255,255,255,0.35)" stroke-width="1" x="1" y="1" width="1480" height="926.4" rx="8"/><text class="terminal-1031370311-title" fill="#c5c8c6" text-anchor="middle" x="740" y="27">detail-200</text>
            <g transform="translate(26,22)">
            <circle cx="0" cy="0" r="7" fill="#ff5f57"/>
            <circle cx="22" cy="0" r="7" fill="#febc2e"/>
            <circle cx="44" cy="0" r="7" fill="#28c840"/>
            </g>
        
    <g transform="translate(9, 41)" clip-path="url(#terminal-1031370311-clip-terminal)">
    <rect fill="#242f38" x="0" y="1.5" width="12.2" height="24.65" shape-rendering="crispEdges"/><rect fill="#242f38" x="12.2" y="1.5" width="85.4" height="24.65" shape-rendering="crispEdges"/><rect fill="#242f38" x="97.6" y="1.5" width="24.4" height="24.65" shape-rendering="crispEdges"/><rect fill="#242f38" x="122" y="1.5" width="73.2" height="24.65" shape-rendering="crispEdges"/><rect fill="#242f38" x="195.2" y="1.5" width="24.4" height="24.65" shape-rendering="crispEdges"/><rect fill="#242f38" x="219.6" y="1.5" width="36.6" height="24.65" shape-rendering="crispEdges"/><rect fill="#242f38" x="256.2" y="1.5" width="73.2" height="24.65" shape-rendering="crispEdges"/><rect fill="#242f38" x="329.4" y="1.5" width="1122.4" height="24.65" shape-rendering="crispEdges"/><rect fill="#242f38" x="1451.8" y="1.5" width="12.2" height="24.65" shape-rendering="crispEdges"/><rect fill="#242f38" x="0" y="25.9" width="12.2" height="24.65" shape-rendering="crispEdges"/><rect fill="#242f38" x="12.2" y="25.9" width="61" height="24.65" shape-rendering="crispEdges"/><rect fill="#242f38" x="73.2" y="25.9" width="671" height="24.65" shape-rendering="crispEdges"/><rect fill="#242f38" x="744.2" y="25.9" width="707.6" height="24.65" shape-rendering="crispEdges"/><rect fill="#242f38" x="1451.8" y="25.9" width="12.2" height="24.65" shape-rendering="crispEdges"/><rect fill="#121212" x="0" y="50.3" width="1464" height="24.65" shape-rendering="crispEdges"/><rect fill="#121212" x="0" y="74.7" width="12.2" height="24.65" shape-rendering="crispEdges"/><rect fill="#121212" x="12.2" y="74.7" width="158.6" height="24.65" shape-rendering="crispEdges"/><rect fill="#121212" x="170.8" y="74.7" width="1281" height="24.65" shape-rendering="crispEdges"/><rect fill="#121212" x="1451.8" y="74.7" width="12.2" height="24.65" shape-rendering="crispEdges"/><rect fill="#121212" x="0" y="99.1" width="12.2" height="24.65" shape-rendering="crispEdges"/><rect fill="#121212" x="12.2" y="99.1" width="292.8" height="24.65" shape-rendering="crispEdges"/><rect fill="#121212" x="305" y="99.1" width="1146.8" height="24.65" shape-rendering="crispEdges"/><rect fill="#121212" x="1451.8" y="99.1" width="12.2" height="24.65" shape-rendering="crispEdges"/><rect fill="#121212" x="0" y="123.5" width="12.2" height="24.65" shape-rendering="crispEdges"/><rect fill="#121212" x="12.2" y="123.5" width="305" height="24.65" shape-rendering="crispEdges"/><rect fill="#121212" x="317.2" y="123.5" width="1134.6" height="24.65" shape-rendering="crispEdges"/><rect fill="#121212" x="1451.8" y="123.5" width="12.2" height="24.65" shape-rendering="crispEdges"/><rect fill="#121212" x="0" y="147.9" width="12.2" height="24.65" shape-rendering="crispEdges"/><rect fill="#121212" x="12.2" y="147.9" width="0" height="24.65" shape-rendering="crispEdges"/><rect fill="#121212" x="12.2" y="147.9" width="1439.6" height="24.65" shape-rendering="crispEdges"/><rect fill="#121212" x="1451.8" y="147.9" width="12.2" height="24.65" shape-rendering="crispEdges"/><rect fill="#121212" x="0" y="172.3" width="12.2" height="24.65" shape-rendering="crispEdges"/><rect fill="#121212" x="12.2" y="172.3" width="12.2" height="24.65" shape-rendering="crispEdges"/><rect fill="#121212" x="24.4" y="172.3" width="1427.4" height="24.65" shape-rendering="crispEdges"/><rect fill="#121212" x="1451.8" y="172.3" width="12.2" height="24.65" shape-rendering="crispEdges"/><rect fill="#121212" x="0" y="196.7" width="12.2" height="24.65" shape-rendering="crispEdges"/><rect fill="#121212" x="12.2" y="196.7" width="122" height="24.65" shape-rendering="crispEdges"/><rect fill="#121212" x="134.2" y="196.7" width="1317.6" height="24.65" shape-rendering="crispEdges"/><rect fill="#121212" x="1451.8" y="196.7" width="12.2" height="24.65" shape-rendering="crispEdges"/><rect fill="#121212" x="0" y="221.1" width="12.2" height="24.65" shape-rendering="crispEdges"/><rect fill="#121212" x="12.2" y="221.1" width="12.2" height="24.65" shape-rendering="crispEdges"/><rect fill="#121212" x="24.4" y="221.1" width="1427.4" height="24.65" shape-rendering="crispEdges"/><rect fill="#121212" x="1451.8" y="221.1" width="12.2" height="24.65" shape-rendering="crispEdges"/><rect fill="#121212" x="0" y="245.5" width="1464" height="24.65" shape-rendering="crispEdges"/><rect fill="#121212" x="0" y="269.9" width="1464" height="24.65" shape-rendering="crispEdges"/><rect fill="#121212" x="0" y="294.3" width="1464" height="24.65" shape-rendering="crispEdges"/><rect fill="#121212" x="0" y="318.7" width="1464" height="24.65" shape-rendering="crispEdges"/><rect fill="#121212" x="0" y="343.1" width="12.2" height="24.65" shape-rendering="crispEdges"/><rect fill="#121212" x="12.2" y="343.1" width="12.2" height="24.65" shape-rendering="crispEdges"/><rect fill="#121212" x="24.4" y="343.1" width="378.2" height="24.65" shape-rendering="crispEdges"/><rect fill="#121212" x="402.6" y="343.1" width="1049.2" height="24.65" shape-rendering="crispEdges"/><rect fill="#121212" x="1451.8" y="343.1" width="12.2" height="24.65" shape-rendering="crispEdges"/><rect fill="#121212" x="0" y="367.5" width="12.2" height="24.65" shape-rendering="crispEdges"/><rect fill="#121212" x="12.2" y="367.5" width="12.2" height="24.65" shape-rendering="crispEdges"/><rect fill="#121212" x="24.4" y="367.5" width="366" height="24.65" shape-rendering="crispEdges"/><rect fill="#121212" x="390.4" y="367.5" width="1061.4" height="24.65" shape-rendering="crispEdges"/><rect fill="#121212" x="1451.8" y="367.5" width="12.2" height="24.65" shape-rendering="crispEdges"/><rect fill="#121212" x="0" y="391.9" width="12.2" height="24.65" shape-rendering="crispEdges"/><rect fill="#121212" x="12.2" y="391.9" width="12.2" height="24.65" shape-rendering="crispEdges"/><rect fill="#121212" x="24.4" y="391.9" width="0" height="24.65" shape-rendering="crispEdges"/><rect fill="#121212" x="24.4" y="391.9" width="1427.4" height="24.65" shape-rendering="crispEdges"/><rect fill="#121212" x="1451.8" y="391.9" width="12.2" height="24.65" shape-rendering="crispEdges"/><rect fill="#121212" x="0" y="416.3" width="12.2" height="24.65" shape-rendering="crispEdges"/><rect fill="#121212" x="12.2" y="416.3" width="12.2" height="24.65" shape-rendering="crispEdges"/><rect fill="#121212" x="24.4" y="416.3" width="12.2" height="24.65" shape-rendering="crispEdges"/><rect fill="#121212" x="36.6" y="416.3" width="1415.2" height="24.65" shape-rendering="crispEdges"/><rect fill="#121212" x="1451.8" y="416.3" width="12.2" height="24.65" shape-rendering="crispEdges"/><rect fill="#121212" x="0" y="440.7" width="12.2" height="24.65" shape-rendering="crispEdges"/><rect fill="#121212" x="12.2" y="440.7" width="12.2" height="24.65" shape-rendering="crispEdges"/><rect fill="#121212" x="24.4" y="440.7" width="158.6" height="24.65" shape-rendering="crispEdges"/><rect fill="#121212" x="183" y="440.7" width="1268.8" height="24.65" shape-rendering="crispEdges"/><rect fill="#121212" x="1451.8" y="440.7" width="12.2" height="24.65" shape-rendering="crispEdges"/><rect fill="#121212" x="0" y="465.1" width="12.2" height="24.65" shape-rendering="crispEdges"/><rect fill="#121212" x="12.2" y="465.1" width="12.2" height="24.65" shape-rendering="crispEdges"/><rect fill="#121212" x="24.4" y="465.1" width="158.6" height="24.65" shape-rendering="crispEdges"/><rect fill="#121212" x="183" y="465.1" width="1268.8" height="24.65" shape-rendering="crispEdges"/><rect fill="#121212" x="1451.8" y="465.1" width="12.2" height="24.65" shape-rendering="crispEdges"/><rect fill="#121212" x="0" y="489.5" width="12.2" height="24.65" shape-rendering="crispEdges"/><rect fill="#121212" x="12.2" y="489.5" width="12.2" height="24.65" shape-rendering="crispEdges"/><rect fill="#121212" x="24.4" y="489.5" width="451.4" height="24.65" shape-rendering="crispEdges"/><rect fill="#121212" x="475.8" y="489.5" width="976" height="24.65" shape-rendering="crispEdges"/><rect fill="#121212" x="1451.8" y="489.5" width="12.2" height="24.65" shape-rendering="crispEdges"/><rect fill="#121212" x="0" y="513.9" width="12.2" height="24.65" shape-rendering="crispEdges"/><rect fill="#121212" x="12.2" y="513.9" width="12.2" height="24.65" shape-rendering="crispEdges"/><rect fill="#121212" x="24.4" y="513.9" width="12.2" height="24.65" shape-rendering="crispEdges"/><rect fill="#121212" x="36.6" y="513.9" width="1415.2" height="24.65" shape-rendering="crispEdges"/><rect fill="#121212" x="1451.8" y="513.9" width="12.2" height="24.65" shape-rendering="crispEdges"/><rect fill="#121212" x="0" y="538.3" width="1464" height="24.65" shape-rendering="crispEdges"/><rect fill="#121212" x="0" y="562.7" width="1464" height="24.65" shape-rendering="crispEdges"/><rect fill="#121212" x="0" y="587.1" width="1464" height="24.65" shape-rendering="crispEdges"/><rect fill="#121212" x="0" y="611.5" width="1464" height="24.65" shape-rendering="crispEdges"/><rect fill="#121212" x="0" y="635.9" width="1464" height="24.65" shape-rendering="crispEdges"/><rect fill="#121212" x="0" y="660.3" width="1464" height="24.65" shape-rendering="crispEdges"/><rect fill="#121212" x="0" y="684.7" width="1464" height="24.65" shape-rendering="crispEdges"/><rect fill="#121212" x="0" y="709.1" width="1464" height="24.65" shape-rendering="crispEdges"/><rect fill="#121212" x="0" y="733.5" width="1464" height="24.65" shape-rendering="crispEdges"/><rect fill="#121212" x="0" y="757.9" width="1464" height="24.65" shape-rendering="crispEdges"/><rect fill="#121212" x="0" y="782.3" width="1464" height="24.65" shape-rendering="crispEdges"/><rect fill="#121212" x="0" y="806.7" width="1464" height="24.65" shape-rendering="crispEdges"/><rect fill="#121212" x="0" y="831.1" width="1464" height="24.65" shape-rendering="crispEdges"/><rect fill="#242f38" x="0" y="855.5" width="12.2" height="24.65" shape-rendering="crispEdges"/><rect fill="#242f38" x="12.2" y="855.5" width="829.6" height="24.65" shape-rendering="crispEdges"/><rect fill="#242f38" x="841.8" y="855.5" width="610" height="24.65" shape-rendering="crispEdges"/><rect fill="#242f38" x="1451.8" y="855.5" width="12.2" height="24.65" shape-rendering="crispEdges"/>
    <g class="terminal-1031370311-matrix">
    <text class="terminal-1031370311-r2" x="12.2" y="20" textLength="85.4" clip-path="url(#terminal-1031370311-line-0)">Flow&#160;#6</text><text class="terminal-1031370311-r4" x="122" y="20" textLength="73.2" clip-path="url(#terminal-1031370311-line-0)">DELETE</text><text class="terminal-1031370311-r5" x="219.6" y="20" textLength="36.6" clip-path="url(#terminal-1031370311-line-0)">204</text><text class="terminal-1031370311-r6" x="256.2" y="20" textLength="73.2" clip-path="url(#terminal-1031370311-line-0)">&#160;&#160;15ms</text><text class="terminal-1031370311-r1" x="1464" y="20" textLength="12.2" clip-path="url(#terminal-1031370311-line-0)">
</text><text class="terminal-1031370311-r6" x="12.2" y="44.4" textLength="61" clip-path="url(#terminal-1031370311-line-1)">URL:&#160;</text><text class="terminal-1031370311-r3" x="73.2" y="44.4" textLength="671" clip-path="url(#terminal-1031370311-line-1)">https://api.example.com/api/v2/contents/abc123/episodes</text><text class="terminal-1031370311-r1" x="1464" y="44.4" textLength="12.2" clip-path="url(#terminal-1031370311-line-1)">
</text><text class="terminal-1031370311-r7" x="0" y="68.8" textLength="1464" clip-path="url(#terminal-1031370311-line-2)">────────────────────────────────────────────────────────────────────────────────────────────────────────────────────────</text><text class="terminal-1031370311-r1" x="1464" y="68.8" textLength="12.2" clip-path="url(#terminal-1031370311-line-2)">
</text><text class="terminal-1031370311-r8" x="12.2" y="93.2" textLength="158.6" clip-path="url(#terminal-1031370311-line-3)">──&#160;Request&#160;──</text><text class="terminal-1031370311-r1" x="1464" y="93.2" textLength="12.2" clip-path="url(#terminal-1031370311-line-3)">
</text><text class="terminal-1031370311-r8" x="12.2" y="117.6" textLength="292.8" clip-path="url(#terminal-1031370311-line-4)">Accept:&#160;application/json</text><text class="terminal-1031370311-r1" x="1464" y="117.6" textLength="12.2" clip-path="url(#terminal-1031370311-line-4)">
</text><text class="terminal-1031370311-r8" x="12.2" y="142" textLength="305" clip-path="url(#terminal-1031370311-line-5)">Authorization:&#160;Bearer&#160;tok</text><text class="terminal-1031370311-r1" x="1464" y="142" textLength="12.2" clip-path="url(#terminal-1031370311-line-5)">
</text><text class="terminal-1031370311-r1" x="1464" y="166.4" textLength="12.2" clip-path="url(#terminal-1031370311-line-6)">
</text><text class="terminal-1031370311-r8" x="12.2" y="190.8" textLength="12.2" clip-path="url(#terminal-1031370311-line-7)">{</text><text class="terminal-1031370311-r1" x="1464" y="190.8" textLength="12.2" clip-path="url(#terminal-1031370311-line-7)">
</text><text class="terminal-1031370311-r8" x="12.2" y="215.2" textLength="122" clip-path="url(#terminal-1031370311-line-8)">&#160;&#160;&quot;idx&quot;:&#160;5</text><text class="terminal-1031370311-r1" x="1464" y="215.2" textLength="12.2" clip-path="url(#terminal-1031370311-line-8)">
</text><text class="terminal-1031370311-r8" x="12.2" y="239.6" textLength="12.2" clip-path="url(#terminal-1031370311-line-9)">}</text><text class="terminal-1031370311-r1" x="1464" y="239.6" textLength="12.2" clip-path="url(#terminal-1031370311-line-9)">
</text><text class="terminal-1031370311-r1" x="1464" y="264" textLength="12.2" clip-path="url(#terminal-1031370311-line-10)">
</text><text class="terminal-1031370311-r1" x="1464" y="288.4" textLength="12.2" clip-path="url(#terminal-1031370311-line-11)">
</text><text class="terminal-1031370311-r1" x="1464" y="312.8" textLength="12.2" clip-path="url(#terminal-1031370311-line-12)">
</text><text class="terminal-1031370311-r7" x="0" y="337.2" textLength="1464" clip-path="url(#terminal-1031370311-line-13)">────────────────────────────────────────────────────────────────────────────────────────────────────────────────────────</text><text class="terminal-1031370311-r1" x="1464" y="337.2" textLength="12.2" clip-path="url(#terminal-1031370311-line-13)">
</text><text class="terminal-1031370311-r9" x="0" y="361.6" textLength="12.2" clip-path="url(#terminal-1031370311-line-14)">█</text><text class="terminal-1031370311-r8" x="24.4" y="361.6" textLength="378.2" clip-path="url(#terminal-1031370311-line-14)">──&#160;Response&#160;(204)&#160;·&#160;61&#160;bytes&#160;──</text><text class="terminal-1031370311-r1" x="1464" y="361.6" textLength="12.2" clip-path="url(#terminal-1031370311-line-14)">
</text><text class="terminal-1031370311-r9" x="0" y="386" textLength="12.2" clip-path="url(#terminal-1031370311-line-15)">█</text><text class="terminal-1031370311-r8" x="24.4" y="386" textLength="366" clip-path="url(#terminal-1031370311-line-15)">Content-Type:&#160;application/json</text><text class="terminal-1031370311-r1" x="1464" y="386" textLength="12.2" clip-path="url(#terminal-1031370311-line-15)">
</text><text class="terminal-1031370311-r9" x="0" y="410.4" textLength="12.2" clip-path="url(#terminal-1031370311-line-16)">█</text><text class="terminal-1031370311-r1" x="1464" y="410.4" textLength="12.2" clip-path="url(#terminal-1031370311-line-16)">
</text><text class="terminal-1031370311-r9" x="0" y="434.8" textLength="12.2" clip-path="url(#terminal-1031370311-line-17)">█</text><text class="terminal-1031370311-r8" x="24.4" y="434.8" textLength="12.2" clip-path="url(#terminal-1031370311-line-17)">{</text><text class="terminal-1031370311-r1" x="1464" y="434.8" textLength="12.2" clip-path="url(#terminal-1031370311-line-17)">
</text><text class="terminal-1031370311-r9" x="0" y="459.2" textLength="12.2" clip-path="url(#terminal-1031370311-line-18)">█</text><text class="terminal-1031370311-r8" x="24.4" y="459.2" textLength="158.6" clip-path="url(#terminal-1031370311-line-18)">&#160;&#160;&quot;ok&quot;:&#160;true,</text><text class="terminal-1031370311-r1" x="1464" y="459.2" textLength="12.2" clip-path="url(#terminal-1031370311-line-18)">
</text><text class="terminal-1031370311-r9" x="0" y="483.6" textLength="12.2" clip-path="url(#terminal-1031370311-line-19)">█</text><text class="terminal-1031370311-r8" x="24.4" y="483.6" textLength="158.6" clip-path="url(#terminal-1031370311-line-19)">&#160;&#160;&quot;index&quot;:&#160;5,</text><text class="terminal-1031370311-r1" x="1464" y="483.6" textLength="12.2" clip-path="url(#terminal-1031370311-line-19)">
</text><text class="terminal-1031370311-r9" x="0" y="508" textLength="12.2" clip-path="url(#terminal-1031370311-line-20)">█</text><text class="terminal-1031370311-r8" x="24.4" y="508" textLength="451.4" clip-path="url(#terminal-1031370311-line-20)">&#160;&#160;&quot;timestamp&quot;:&#160;&quot;2026-04-16T13:01:51Z&quot;</text><text class="terminal-1031370311-r1" x="1464" y="508" textLength="12.2" clip-path="url(#terminal-1031370311-line-20)">
</text><text class="terminal-1031370311-r9" x="0" y="532.4" textLength="12.2" clip-path="url(#terminal-1031370311-line-21)">█</text><text class="terminal-1031370311-r8" x="24.4" y="532.4" textLength="12.2" clip-path="url(#terminal-1031370311-line-21)">}</text><text class="terminal-1031370311-r1" x="1464" y="532.4" textLength="12.2" clip-path="url(#terminal-1031370311-line-21)">
</text><text class="terminal-1031370311-r1" x="1464" y="556.8" textLength="12.2" clip-path="url(#terminal-1031370311-line-22)">
</text><text class="terminal-1031370311-r1" x="1464" y="581.2" textLength="12.2" clip-path="url(#terminal-1031370311-line-23)">
</text><text class="terminal-1031370311-r1" x="1464" y="605.6" textLength="12.2" clip-path="url(#terminal-1031370311-line-24)">
</text><text class="terminal-1031370311-r1" x="1464" y="630" textLength="12.2" clip-path="url(#terminal-1031370311-line-25)">
</text><text class="terminal-1031370311-r1" x="1464" y="654.4" textLength="12.2" clip-path="url(#terminal-1031370311-line-26)">
</text><text class="terminal-1031370311-r1" x="1464" y="678.8" textLength="12.2" clip-path="url(#terminal-1031370311-line-27)">
</text><text class="terminal-1031370311-r1" x="1464" y="703.2" textLength="12.2" clip-path="url(#terminal-1031370311-line-28)">
</text><text class="terminal-1031370311-r1" x="1464" y="727.6" textLength="12.2" clip-path="url(#terminal-1031370311-line-29)">
</text><text class="terminal-1031370311-r1" x="1464" y="752" textLength="12.2" clip-path="url(#terminal-1031370311-line-30)">
</text><text class="terminal-1031370311-r1" x="1464" y="776.4" textLength="12.2" clip-path="url(#terminal-1031370311-line-31)">
</text><text class="terminal-1031370311-r1" x="1464" y="800.8" textLength="12.2" clip-path="url(#terminal-1031370311-line-32)">
</text><text class="terminal-1031370311-r1" x="1464" y="825.2" textLength="12.2" clip-path="url(#terminal-1031370311-line-33)">
</text><text class="terminal-1031370311-r1" x="1464" y="849.6" textLength="12.2" clip-path="url(#terminal-1031370311-line-34)">
</text><text class="terminal-1031370311-r10" x="12.2" y="874" textLength="829.6" clip-path="url(#terminal-1031370311-line-35)">Tab&#160;switch&#160;·&#160;↑↓&#160;scroll&#160;·&#160;y&#160;copy&#160;·&#160;u&#160;copy&#160;url&#160;·&#160;m&#160;mock&#160;·&#160;c&#160;curl&#160;·&#160;Esc</text>
    </g>
    </g>
</svg>
