<svg class="rich-terminal" viewBox="0 0 1482 928.4" xmlns="http://www.w3.org/2000/svg">
    <!-- Generated with Rich https://www.textualize.io -->
    <style>

    @font-face {
        font-family: "Fira Code";
        src: local("FiraCode-Regular"),
                url("https://cdnjs.cloudflare.com/ajax/libs/firacode/6.2.0/woff2/FiraCode-Regular.woff2") format("woff2"),
                url("https://cdnjs.cloudflare.com/ajax/libs/firacode/6.2.0/woff/FiraCode-Regular.woff") format("woff");
        font-style: normal;
        font-weight: 400;
    }
    @font-face {
        font-family: "Fira Code";
        src: local("FiraCode-Bold"),
                url("https://cdnjs.cloudflare.com/ajax/libs/firacode/6.2.0/woff2/FiraCode-Bold.woff2") format("woff2"),
                url("https://cdnjs.cloudflare.com/ajax/libs/firacode/6.2.0/woff/FiraCode-Bold.woff") format("woff");
        font-style: bold;
        font-weight: 700;
    }

    .terminal-4130308477-matrix {
        font-family: Fira Code, monospace;
        font-size: 20px;
        line-height: 24.4px;
        font-variant-east-asian: full-width;
    }

    .terminal-4130308477-title {
        font-size: 18px;
        font-weight: bold;
        font-family: arial;
    }

    .terminal-4130308477-r1 { fill: #c5c8c6 }
.terminal-4130308477-r2 { fill: #a7abaf }
.terminal-4130308477-r3 { fill: #fea62b;font-weight: bold }
.terminal-4130308477-r4 { fill: #ffffff;font-weight: bold }
.terminal-4130308477-r5 { fill: #e0e0e0 }
.terminal-4130308477-r6 { fill: #98e024;font-weight: bold }
.terminal-4130308477-r7 { fill: #9d65ff;font-weight: bold }
.terminal-4130308477-r8 { fill: #ff8800;font-weight: bold }
.terminal-4130308477-r9 { fill: #fea62b }
    </style>

    <defs>
    <clipPath id="terminal-4130308477-clip-terminal">
      <rect x="0" y="0" width="1463.0" height="877.4" />
    </clipPath>
    <clipPath id="terminal-4130308477-line-0">
    <rect x="0" y="1.5" width="1464" height="24.65"/>
            </clipPath>
<clipPath id="terminal-4130308477-line-1">
    <rect x="0" y="25.9" width="1464" height="24.65"/>
            </clipPath>
<clipPath id="terminal-4130308477-line-2">
    <rect x="0" y="50.3" width="1464" height="24.65"/>
            </clipPath>
<clipPath id="terminal-4130308477-line-3">
    <rect x="0" y="74.7" width="1464" height="24.65"/>
            </clipPath>
<clipPath id="terminal-4130308477-line-4">
    <rect x="0" y="99.1" width="1464" height="24.65"/>
            </clipPath>
<clipPath id="terminal-4130308477-line-5">
    <rect x="0" y="123.5" width="1464" height="24.65"/>
            </clipPath>
<clipPath id="terminal-4130308477-line-6">
    <rect x="0" y="147.9" width="1464" height="24.65"/>
            </clipPath>
<clipPath id="terminal-4130308477-line-7">
    <rect x="0" y="172.3" width="1464" height="24.65"/>
            </clipPath>
<clipPath id="terminal-4130308477-line-8">
    <rect x="0" y="196.7" width="1464" height="24.65"/>
            </clipPath>
<clipPath id="terminal-4130308477-line-9">
    <rect x="0" y="221.1" width="1464" height="24.65"/>
            </clipPath>
<clipPath id="terminal-4130308477-line-10">
    <rect x="0" y="245.5" width="1464" height="24.65"/>
            </clipPath>
<clipPath id="terminal-4130308477-line-11">
    <rect x="0" y="269.9" width="1464" height="24.65"/>
            </clipPath>
<clipPath id="terminal-4130308477-line-12">
    <rect x="0" y="294.3" width="1464" height="24.65"/>
            </clipPath>
<clipPath id="terminal-4130308477-line-13">
    <rect x="0" y="318.7" width="1464" height="24.65"/>
            </clipPath>
<clipPath id="terminal-4130308477-line-14">
    <rect x="0" y="343.1" width="1464" height="24.65"/>
            </clipPath>
<clipPath id="terminal-4130308477-line-15">
    <rect x="0" y="367.5" width="1464" height="24.65"/>
            </clipPath>
<clipPath id="terminal-4130308477-line-16">
    <rect x="0" y="391.9" width="1464" height="24.65"/>
            </clipPath>
<clipPath id="terminal-4130308477-line-17">
    <rect x="0" y="416.3" width="1464" height="24.65"/>
            </clipPath>
<clipPath id="terminal-4130308477-line-18">
    <rect x="0" y="440.7" width="1464" height="24.65"/>
            </clipPath>
<clipPath id="terminal-4130308477-line-19">
    <rect x="0" y="465.1" width="1464" height="24.65"/>
            </clipPath>
<clipPath id="terminal-4130308477-line-20">
    <rect x="0" y="489.5" width="1464" height="24.65"/>
            </clipPath>
<clipPath id="terminal-4130308477-line-21">
    <rect x="0" y="513.9" width="1464" height="24.65"/>
            </clipPath>
<clipPath id="terminal-4130308477-line-22">
    <rect x="0" y="538.3" width="1464" height="24.65"/>
            </clipPath>
<clipPath id="terminal-4130308477-line-23">
    <rect x="0" y="562.7" width="1464" height="24.65"/>
            </clipPath>
<clipPath id="terminal-4130308477-line-24">
    <rect x="0" y="587.1" width="1464" height="24.65"/>
            </clipPath>
<clipPath id="terminal-4130308477-line-25">
    <rect x="0" y="611.5" width="1464" height="24.65"/>
            </clipPath>
<clipPath id="terminal-4130308477-line-26">
    <rect x="0" y="635.9" width="1464" height="24.65"/>
            </clipPath>
<clipPath id="terminal-4130308477-line-27">
    <rect x="0" y="660.3" width="1464" height="24.65"/>
            </clipPath>
<clipPath id="terminal-4130308477-line-28">
    <rect x="0" y="684.7" width="1464" height="24.65"/>
            </clipPath>
<clipPath id="terminal-4130308477-line-29">
    <rect x="0" y="709.1" width="1464" height="24.65"/>
            </clipPath>
<clipPath id="terminal-4130308477-line-30">
    <rect x="0" y="733.5" width="1464" height="24.65"/>
            </clipPath>
<clipPath id="terminal-4130308477-line-31">
    <rect x="0" y="757.9" width="1464" height="24.65"/>
            </clipPath>
<clipPath id="terminal-4130308477-line-32">
    <rect x="0" y="782.3" width="1464" height="24.65"/>
            </clipPath>
<clipPath id="terminal-4130308477-line-33">
    <rect x="0" y="806.7" width="1464" height="24.65"/>
            </clipPath>
<clipPath id="terminal-4130308477-line-34">
    <rect x="0" y="831.1" width="1464" height="24.65"/>
            </clipPath>
    </defs>

    <rect fill="#292929" stroke="rgba(255,255,255,0.35)" stroke-width="1" x="1" y="1" width="1480" height="926.4" rx="8"/><text class="terminal-4130308477-title" fill="#c5c8c6" text-anchor="middle" x="740" y="27">list-5</text>
            <g transform="translate(26,22)">
            <circle cx="0" cy="0" r="7" fill="#ff5f57"/>
            <circle cx="22" cy="0" r="7" fill="#febc2e"/>
            <circle cx="44" cy="0" r="7" fill="#28c840"/>
            </g>
        
    <g transform="translate(9, 41)" clip-path="url(#terminal-4130308477-clip-terminal)">
    <rect fill="#242f38" x="0" y="1.5" width="12.2" height="24.65" shape-rendering="crispEdges"/><rect fill="#242f38" x="12.2" y="1.5" width="402.6" height="24.65" shape-rendering="crispEdges"/><rect fill="#242f38" x="414.8" y="1.5" width="1037" height="24.65" shape-rendering="crispEdges"/><rect fill="#242f38" x="1451.8" y="1.5" width="12.2" height="24.65" shape-rendering="crispEdges"/><rect fill="#1e2830" x="0" y="25.9" width="48.8" height="24.65" shape-rendering="crispEdges"/><rect fill="#1e2830" x="48.8" y="25.9" width="36.6" height="24.65" shape-rendering="crispEdges"/><rect fill="#1e2830" x="85.4" y="25.9" width="122" height="24.65" shape-rendering="crispEdges"/><rect fill="#1e2830" x="207.4" y="25.9" width="97.6" height="24.65" shape-rendering="crispEdges"/><rect fill="#1e2830" x="305" y="25.9" width="256.2" height="24.65" shape-rendering="crispEdges"/><rect fill="#1e2830" x="561.2" y="25.9" width="353.8" height="24.65" shape-rendering="crispEdges"/><rect fill="#1e2830" x="915" y="25.9" width="97.6" height="24.65" shape-rendering="crispEdges"/><rect fill="#1e2830" x="1012.6" y="25.9" width="451.4" height="24.65" shape-rendering="crispEdges"/><rect fill="#1e4e8f" x="0" y="50.3" width="48.8" height="24.65" shape-rendering="crispEdges"/><rect fill="#1e4e8f" x="48.8" y="50.3" width="36.6" height="24.65" shape-rendering="crispEdges"/><rect fill="#1e4e8f" x="85.4" y="50.3" width="122" height="24.65" shape-rendering="crispEdges"/><rect fill="#1e4e8f" x="207.4" y="50.3" width="97.6" height="24.65" shape-rendering="crispEdges"/><rect fill="#1e4e8f" x="305" y="50.3" width="256.2" height="24.65" shape-rendering="crispEdges"/><rect fill="#1e4e8f" x="561.2" y="50.3" width="353.8" height="24.65" shape-rendering="crispEdges"/><rect fill="#1e4e8f" x="915" y="50.3" width="97.6" height="24.65" shape-rendering="crispEdges"/><rect fill="#1e4e8f" x="1012.6" y="50.3" width="451.4" height="24.65" shape-rendering="crispEdges"/><rect fill="#272727" x="0" y="74.7" width="48.8" height="24.65" shape-rendering="crispEdges"/><rect fill="#272727" x="48.8" y="74.7" width="36.6" height="24.65" shape-rendering="crispEdges"/><rect fill="#272727" x="85.4" y="74.7" width="122" height="24.65" shape-rendering="crispEdges"/><rect fill="#272727" x="207.4" y="74.7" width="12.2" height="24.65" shape-rendering="crispEdges"/><rect fill="#272727" x="219.6" y="74.7" width="36.6" height="24.65" shape-rendering="crispEdges"/><rect fill="#272727" x="256.2" y="74.7" width="48.8" height="24.65" shape-rendering="crispEdges"/><rect fill="#272727" x="305" y="74.7" width="256.2" height="24.65" shape-rendering="crispEdges"/><rect fill="#272727" x="561.2" y="74.7" width="353.8" height="24.65" shape-rendering="crispEdges"/><rect fill="#272727" x="915" y="74.7" width="12.2" height="24.65" shape-rendering="crispEdges"/><rect fill="#272727" x="927.2" y="74.7" width="73.2" height="24.65" shape-rendering="crispEdges"/><rect fill="#272727" x="1000.4" y="74.7" width="12.2" height="24.65" shape-rendering="crispEdges"/><rect fill="#272727" x="1012.6" y="74.7" width="451.4" height="24.65" shape-rendering="crispEdges"/><rect fill="#1c1c1c" x="0" y="99.1" width="48.8" height="24.65" shape-rendering="crispEdges"/><rect fill="#1c1c1c" x="48.8" y="99.1" width="36.6" height="24.65" shape-rendering="crispEdges"/><rect fill="#1c1c1c" x="85.4" y="99.1" width="122" height="24.65" shape-rendering="crispEdges"/><rect fill="#1c1c1c" x="207.4" y="99.1" width="12.2" height="24.65" shape-rendering="crispEdges"/><rect fill="#1c1c1c" x="219.6" y="99.1" width="36.6" height="24.65" shape-rendering="crispEdges"/><rect fill="#1c1c1c" x="256.2" y="99.1" width="48.8" height="24.65" shape-rendering="crispEdges"/><rect fill="#1c1c1c" x="305" y="99.1" width="256.2" height="24.65" shape-rendering="crispEdges"/><rect fill="#1c1c1c" x="561.2" y="99.1" width="353.8" height="24.65" shape-rendering="crispEdges"/><rect fill="#1c1c1c" x="915" y="99.1" width="12.2" height="24.65" shape-rendering="crispEdges"/><rect fill="#1c1c1c" x="927.2" y="99.1" width="73.2" height="24.65" shape-rendering="crispEdges"/><rect fill="#1c1c1c" x="1000.4" y="99.1" width="12.2" height="24.65" shape-rendering="crispEdges"/><rect fill="#1c1c1c" x="1012.6" y="99.1" width="451.4" height="24.65" shape-rendering="crispEdges"/><rect fill="#272727" x="0" y="123.5" width="48.8" height="24.65" shape-rendering="crispEdges"/><rect fill="#272727" x="48.8" y="123.5" width="36.6" height="24.65" shape-rendering="crispEdges"/><rect fill="#272727" x="85.4" y="123.5" width="122" height="24.65" shape-rendering="crispEdges"/><rect fill="#272727" x="207.4" y="123.5" width="12.2" height="24.65" shape-rendering="crispEdges"/><rect fill="#272727" x="219.6" y="123.5" width="48.8" height="24.65" shape-rendering="crispEdges"/><rect fill="#272727" x="268.4" y="123.5" width="36.6" height="24.65" shape-rendering="crispEdges"/><rect fill="#272727" x="305" y="123.5" width="256.2" height="24.65" shape-rendering="crispEdges"/><rect fill="#272727" x="561.2" y="123.5" width="353.8" height="24.65" shape-rendering="crispEdges"/><rect fill="#272727" x="915" y="123.5" width="12.2" height="24.65" shape-rendering="crispEdges"/><rect fill="#272727" x="927.2" y="123.5" width="73.2" height="24.65" shape-rendering="crispEdges"/><rect fill="#272727" x="1000.4" y="123.5" width="12.2" height="24.65" shape-rendering="crispEdges"/><rect fill="#272727" x="1012.6" y="123.5" width="451.4" height="24.65" shape-rendering="crispEdges"/><rect fill="#1c1c1c" x="0" y="147.9" width="48.8" height="24.65" shape-rendering="crispEdges"/><rect fill="#1c1c1c" x="48.8" y="147.9" width="36.6" height="24.65" shape-rendering="crispEdges"/><rect fill="#1c1c1c" x="85.4" y="147.9" width="122" height="24.65" shape-rendering="crispEdges"/><rect fill="#1c1c1c" x="207.4" y="147.9" width="12.2" height="24.65" shape-rendering="crispEdges"/><rect fill="#1c1c1c" x="219.6" y="147.9" width="36.6" height="24.65" shape-rendering="crispEdges"/><rect fill="#1c1c1c" x="256.2" y="147.9" width="48.8" height="24.65" shape-rendering="crispEdges"/><rect fill="#1c1c1c" x="305" y="147.9" width="256.2" height="24.65" shape-rendering="crispEdges"/><rect fill="#1c1c1c" x="561.2" y="147.9" width="353.8" height="24.65" shape-rendering="crispEdges"/><rect fill="#1c1c1c" x="915" y="147.9" width="12.2" height="24.65" shape-rendering="crispEdges"/><rect fill="#1c1c1c" x="927.2" y="147.9" width="73.2" height="24.65" shape-rendering="crispEdges"/><rect fill="#1c1c1c" x="1000.4" y="147.9" width="12.2" height="24.65" shape-rendering="crispEdges"/><rect fill="#1c1c1c" x="1012.6" y="147.9" width="451.4" height="24.65" shape-rendering="crispEdges"/><rect fill="#272727" x="0" y="172.3" width="1464" height="24.65" shape-rendering="crispEdges"/><rect fill="#272727" x="0" y="196.7" width="1464" height="24.65" shape-rendering="crispEdges"/><rect fill="#272727" x="0" y="221.1" width="1464" height="24.65" shape-rendering="crispEdges"/><rect fill="#272727" x="0" y="245.5" width="1464" height="24.65" shape-rendering="crispEdges"/><rect fill="#272727" x="0" y="269.9" width="1464" height="24.65" shape-rendering="crispEdges"/><rect fill="#272727" x="0" y="294.3" width="1464" height="24.65" shape-rendering="crispEdges"/><rect fill="#272727" x="0" y="318.7" width="1464" height="24.65" shape-rendering="crispEdges"/><rect fill="#272727" x="0" y="343.1" width="1464" height="24.65" shape-rendering="crispEdges"/><rect fill="#272727" x="0" y="367.5" width="1464" height="24.65" shape-rendering="crispEdges"/><rect fill="#272727" x="0" y="391.9" width="1464" height="24.65" shape-rendering="crispEdges"/><rect fill="#272727" x="0" y="416.3" width="1464" height="24.65" shape-rendering="crispEdges"/><rect fill="#272727" x="0" y="440.7" width="1464" height="24.65" shape-rendering="crispEdges"/><rect fill="#272727" x="0" y="465.1" width="1464" height="24.65" shape-rendering="crispEdges"/><rect fill="#272727" x="0" y="489.5" width="1464" height="24.65" shape-rendering="crispEdges"/><rect fill="#272727" x="0" y="513.9" width="1464" height="24.65" shape-rendering="crispEdges"/><rect fill="#272727" x="0" y="538.3" width="1464" height="24.65" shape-rendering="crispEdges"/><rect fill="#272727" x="0" y="562.7" width="1464" height="24.65" shape-rendering="crispEdges"/><rect fill="#272727" x="0" y="587.1" width="1464" height="24.65" shape-rendering="crispEdges"/><rect fill="#272727" x="0" y="611.5" width="1464" height="24.65" shape-rendering="crispEdges"/><rect fill="#272727" x="0" y="635.9" width="1464" height="24.65" shape-rendering="crispEdges"/><rect fill="#272727" x="0" y="660.3" width="1464" height="24.65" shape-rendering="crispEdges"/><rect fill="#272727" x="0" y="684.7" width="1464" height="24.65" shape-rendering="crispEdges"/><rect fill="#272727" x="0" y="709.1" width="1464" height="24.65" shape-rendering="crispEdges"/><rect fill="#272727" x="0" y="733.5" width="1464" height="24.65" shape-rendering="crispEdges"/><rect fill="#272727" x="0" y="757.9" width="1464" height="24.65" shape-rendering="crispEdges"/><rect fill="#272727" x="0" y="782.3" width="1464" height="24.65" shape-rendering="crispEdges"/><rect fill="#242f38" x="0" y="806.7" width="12.2" height="24.65" shape-rendering="crispEdges"/><rect fill="#242f38" x="12.2" y="806.7" width="841.8" height="24.65" shape-rendering="crispEdges"/><rect fill="#242f38" x="854" y="806.7" width="597.8" height="24.65" shape-rendering="crispEdges"/><rect fill="#242f38" x="1451.8" y="806.7" width="12.2" height="24.65" shape-rendering="crispEdges"/><rect fill="#121212" x="0" y="831.1" width="12.2" height="24.65" shape-rendering="crispEdges"/><rect fill="#121212" x="12.2" y="831.1" width="0" height="24.65" shape-rendering="crispEdges"/><rect fill="#121212" x="12.2" y="831.1" width="1439.6" height="24.65" shape-rendering="crispEdges"/><rect fill="#121212" x="1451.8" y="831.1" width="12.2" height="24.65" shape-rendering="crispEdges"/><rect fill="#242f38" x="0" y="855.5" width="12.2" height="24.65" shape-rendering="crispEdges"/><rect fill="#242f38" x="12.2" y="855.5" width="183" height="24.65" shape-rendering="crispEdges"/><rect fill="#242f38" x="195.2" y="855.5" width="1256.6" height="24.65" shape-rendering="crispEdges"/><rect fill="#242f38" x="1451.8" y="855.5" width="12.2" height="24.65" shape-rendering="crispEdges"/>
    <g class="terminal-4130308477-matrix">
    <text class="terminal-4130308477-r2" x="12.2" y="20" textLength="402.6" clip-path="url(#terminal-4130308477-line-0)">/…/tmp3zqnwe6n/list5.db&#160;·&#160;5&#160;flows</text><text class="terminal-4130308477-r1" x="1464" y="20" textLength="12.2" clip-path="url(#terminal-4130308477-line-0)">
</text><text class="terminal-4130308477-r3" x="48.8" y="44.4" textLength="36.6" clip-path="url(#terminal-4130308477-line-1)">&#160;#&#160;</text><text class="terminal-4130308477-r3" x="85.4" y="44.4" textLength="122" clip-path="url(#terminal-4130308477-line-1)">&#160;TIME&#160;&#160;&#160;&#160;&#160;</text><text class="terminal-4130308477-r3" x="207.4" y="44.4" textLength="97.6" clip-path="url(#terminal-4130308477-line-1)">&#160;METHOD&#160;</text><text class="terminal-4130308477-r3" x="305" y="44.4" textLength="256.2" clip-path="url(#terminal-4130308477-line-1)">&#160;HOST&#160;&#160;&#160;&#160;&#160;&#160;&#160;&#160;&#160;&#160;&#160;&#160;&#160;&#160;&#160;&#160;</text><text class="terminal-4130308477-r3" x="561.2" y="44.4" textLength="353.8" clip-path="url(#terminal-4130308477-line-1)">&#160;PATH&#160;&#160;&#160;&#160;&#160;&#160;&#160;&#160;&#160;&#160;&#160;&#160;&#160;&#160;&#160;&#160;&#160;&#160;&#160;&#160;&#160;&#160;&#160;&#160;</text><text class="terminal-4130308477-r3" x="915" y="44.4" textLength="97.6" clip-path="url(#terminal-4130308477-line-1)">&#160;STATUS&#160;</text><text class="terminal-4130308477-r1" x="1464" y="44.4" textLength="12.2" clip-path="url(#terminal-4130308477-line-1)">
</text><text class="terminal-4130308477-r4" x="0" y="68.8" textLength="48.8" clip-path="url(#terminal-4130308477-line-2)">&#160;▶&#160;&#160;</text><text class="terminal-4130308477-r4" x="48.8" y="68.8" textLength="36.6" clip-path="url(#terminal-4130308477-line-2)">&#160;1&#160;</text><text class="terminal-4130308477-r4" x="85.4" y="68.8" textLength="122" clip-path="url(#terminal-4130308477-line-2)">&#160;13:01:46&#160;</text><text class="terminal-4130308477-r4" x="207.4" y="68.8" textLength="97.6" clip-path="url(#terminal-4130308477-line-2)">&#160;GET&#160;&#160;&#160;&#160;</text><text class="terminal-4130308477-r4" x="305" y="68.8" textLength="256.2" clip-path="url(#terminal-4130308477-line-2)">&#160;api.example.com&#160;&#160;&#160;&#160;&#160;</text><text class="terminal-4130308477-r4" x="561.2" y="68.8" textLength="353.8" clip-path="url(#terminal-4130308477-line-2)">&#160;/api/v2/users/12345/ratings&#160;</text><text class="terminal-4130308477-r4" x="915" y="68.8" textLength="97.6" clip-path="url(#terminal-4130308477-line-2)">&#160;&#160;200&#160;✓&#160;</text><text class="terminal-4130308477-r1" x="1464" y="68.8" textLength="12.2" clip-path="url(#terminal-4130308477-line-2)">
</text><text class="terminal-4130308477-r5" x="48.8" y="93.2" textLength="36.6" clip-path="url(#terminal-4130308477-line-3)">&#160;2&#160;</text><text class="terminal-4130308477-r5" x="85.4" y="93.2" textLength="122" clip-path="url(#terminal-4130308477-line-3)">&#160;13:01:47&#160;</text><text class="terminal-4130308477-r6" x="219.6" y="93.2" textLength="36.6" clip-path="url(#terminal-4130308477-line-3)">GET</text><text class="terminal-4130308477-r5" x="305" y="93.2" textLength="256.2" clip-path="url(#terminal-4130308477-line-3)">&#160;api.example.com&#160;&#160;&#160;&#160;</text><text class="terminal-4130308477-r5" x="561.2" y="93.2" textLength="353.8" clip-path="url(#terminal-4130308477-line-3)">&#160;/api/v2/movies/99/reviews&#160;&#160;&#160;</text><text class="terminal-4130308477-r6" x="927.2" y="93.2" textLength="73.2" clip-path="url(#terminal-4130308477-line-3)">&#160;200&#160;✓</text><text class="terminal-4130308477-r1" x="1464" y="93.2" textLength="12.2" clip-path="url(#terminal-4130308477-line-3)">
</text><text class="terminal-4130308477-r5" x="48.8" y="117.6" textLength="36.6" clip-path="url(#terminal-4130308477-line-4)">&#160;3&#160;</text><text class="terminal-4130308477-r5" x="85.4" y="117.6" textLength="122" clip-path="url(#terminal-4130308477-line-4)">&#160;13:01:48&#160;</text><text class="terminal-4130308477-r6" x="219.6" y="117.6" textLength="36.6" clip-path="url(#terminal-4130308477-line-4)">GET</text><text class="terminal-4130308477-r5" x="305" y="117.6" textLength="256.2" clip-path="url(#terminal-4130308477-line-4)">&#160;cdn.example.com&#160;&#160;&#160;&#160;&#160;&#160;</text><text class="terminal-4130308477-r5" x="561.2" y="117.6" textLength="353.8" clip-path="url(#terminal-4130308477-line-4)">&#160;/api/v1/search&#160;&#160;&#160;&#160;&#160;&#160;&#160;&#160;&#160;&#160;&#160;&#160;&#160;&#160;</text><text class="terminal-4130308477-r6" x="927.2" y="117.6" textLength="73.2" clip-path="url(#terminal-4130308477-line-4)">&#160;200&#160;✓</text><text class="terminal-4130308477-r1" x="1464" y="117.6" textLength="12.2" clip-path="url(#terminal-4130308477-line-4)">
</text><text class="terminal-4130308477-r5" x="48.8" y="142" textLength="36.6" clip-path="url(#terminal-4130308477-line-5)">&#160;4&#160;</text><text class="terminal-4130308477-r5" x="85.4" y="142" textLength="122" clip-path="url(#terminal-4130308477-line-5)">&#160;13:01:49&#160;</text><text class="terminal-4130308477-r7" x="219.6" y="142" textLength="48.8" clip-path="url(#terminal-4130308477-line-5)">POST</text><text class="terminal-4130308477-r5" x="305" y="142" textLength="256.2" clip-path="url(#terminal-4130308477-line-5)">&#160;auth.example.com&#160;&#160;&#160;&#160;</text><text class="terminal-4130308477-r5" x="561.2" y="142" textLength="353.8" clip-path="url(#terminal-4130308477-line-5)">&#160;/api/v2/auth/token&#160;&#160;&#160;&#160;&#160;&#160;&#160;&#160;&#160;&#160;</text><text class="terminal-4130308477-r6" x="927.2" y="142" textLength="73.2" clip-path="url(#terminal-4130308477-line-5)">&#160;201&#160;✓</text><text class="terminal-4130308477-r1" x="1464" y="142" textLength="12.2" clip-path="url(#terminal-4130308477-line-5)">
</text><text class="terminal-4130308477-r5" x="48.8" y="166.4" textLength="36.6" clip-path="url(#terminal-4130308477-line-6)">&#160;5&#160;</text><text class="terminal-4130308477-r5" x="85.4" y="166.4" textLength="122" clip-path="url(#terminal-4130308477-line-6)">&#160;13:01:50&#160;</text><text class="terminal-4130308477-r8" x="219.6" y="166.4" textLength="36.6" clip-path="url(#terminal-4130308477-line-6)">PUT</text><text class="terminal-4130308477-r5" x="305" y="166.4" textLength="256.2" clip-path="url(#terminal-4130308477-line-6)">&#160;graphql.example.com&#160;</text><text class="terminal-4130308477-r5" x="561.2" y="166.4" textLength="353.8" clip-path="url(#terminal-4130308477-line-6)">&#160;/health&#160;&#160;&#160;&#160;&#160;&#160;&#160;&#160;&#160;&#160;&#160;&#160;&#160;&#160;&#160;&#160;&#160;&#160;&#160;&#160;&#160;</text><text class="terminal-4130308477-r6" x="927.2" y="166.4" textLength="73.2" clip-path="url(#terminal-4130308477-line-6)">&#160;200&#160;✓</text><text class="terminal-4130308477-r1" x="1464" y="166.4" textLength="12.2" clip-path="url(#terminal-4130308477-line-6)">
</text><text class="terminal-4130308477-r1" x="1464" y="190.8" textLength="12.2" clip-path="url(#terminal-4130308477-line-7)">
</text><text class="terminal-4130308477-r1" x="1464" y="215.2" textLength="12.2" clip-path="url(#terminal-4130308477-line-8)">
</text><text class="terminal-4130308477-r1" x="1464" y="239.6" textLength="12.2" clip-path="url(#terminal-4130308477-line-9)">
</text><text class="terminal-4130308477-r1" x="1464" y="264" textLength="12.2" clip-path="url(#terminal-4130308477-line-10)">
</text><text class="terminal-4130308477-r1" x="1464" y="288.4" textLength="12.2" clip-path="url(#terminal-4130308477-line-11)">
</text><text class="terminal-4130308477-r1" x="1464" y="312.8" textLength="12.2" clip-path="url(#terminal-4130308477-line-12)">
</text><text class="terminal-4130308477-r1" x="1464" y="337.2" textLength="12.2" clip-path="url(#terminal-4130308477-line-13)">
</text><text class="terminal-4130308477-r1" x="1464" y="361.6" textLength="12.2" clip-path="url(#terminal-4130308477-line-14)">
</text><text class="terminal-4130308477-r1" x="1464" y="386" textLength="12.2" clip-path="url(#terminal-4130308477-line-15)">
</text><text class="terminal-4130308477-r1" x="1464" y="410.4" textLength="12.2" clip-path="url(#terminal-4130308477-line-16)">
</text><text class="terminal-4130308477-r1" x="1464" y="434.8" textLength="12.2" clip-path="url(#terminal-4130308477-line-17)">
</text><text class="terminal-4130308477-r1" x="1464" y="459.2" textLength="12.2" clip-path="url(#terminal-4130308477-line-18)">
</text><text class="terminal-4130308477-r1" x="1464" y="483.6" textLength="12.2" clip-path="url(#terminal-4130308477-line-19)">
</text><text class="terminal-4130308477-r1" x="1464" y="508" textLength="12.2" clip-path="url(#terminal-4130308477-line-20)">
</text><text class="terminal-4130308477-r1" x="1464" y="532.4" textLength="12.2" clip-path="url(#terminal-4130308477-line-21)">
</text><text class="terminal-4130308477-r1" x="1464" y="556.8" textLength="12.2" clip-path="url(#terminal-4130308477-line-22)">
</text><text class="terminal-4130308477-r1" x="1464" y="581.2" textLength="12.2" clip-path="url(#terminal-4130308477-line-23)">
</text><text class="terminal-4130308477-r1" x="1464" y="605.6" textLength="12.2" clip-path="url(#terminal-4130308477-line-24)">
</text><text class="terminal-4130308477-r1" x="1464" y="630" textLength="12.2" clip-path="url(#terminal-4130308477-line-25)">
</text><text class="terminal-4130308477-r1" x="1464" y="654.4" textLength="12.2" clip-path="url(#terminal-4130308477-line-26)">
</text><text class="terminal-4130308477-r1" x="1464" y="678.8" textLength="12.2" clip-path="url(#terminal-4130308477-line-27)">
</text><text class="terminal-4130308477-r1" x="1464" y="703.2" textLength="12.2" clip-path="url(#terminal-4130308477-line-28)">
</text><text class="terminal-4130308477-r1" x="1464" y="727.6" textLength="12.2" clip-path="url(#terminal-4130308477-line-29)">
</text><text class="terminal-4130308477-r1" x="1464" y="752" textLength="12.2" clip-path="url(#terminal-4130308477-line-30)">
</text><text class="terminal-4130308477-r1" x="1464" y="776.4" textLength="12.2" clip-path="url(#terminal-4130308477-line-31)">
</text><text class="terminal-4130308477-r1" x="1464" y="800.8" textLength="12.2" clip-path="url(#terminal-4130308477-line-32)">
</text><text class="terminal-4130308477-r2" x="12.2" y="825.2" textLength="841.8" clip-path="url(#terminal-4130308477-line-33)">↑↓&#160;browse&#160;·&#160;⏎&#160;detail&#160;·&#160;f&#160;filter&#160;·&#160;m&#160;mock&#160;·&#160;M&#160;mocks&#160;·&#160;x&#160;clear&#160;·&#160;q&#160;quit</text><text class="terminal-4130308477-r1" x="1464" y="825.2" textLength="12.2" clip-path="url(#terminal-4130308477-line-33)">
</text><text class="terminal-4130308477-r1" x="1464" y="849.6" textLength="12.2" clip-path="url(#terminal-4130308477-line-34)">
</text><text class="terminal-4130308477-r2" x="12.2" y="874" textLength="170.8" clip-path="url(#terminal-4130308477-line-35)">📡&#160;192.168.0.56</text>
    </g>
    </g>
</svg>
